<svg xmlns="http://www.w3.org/2000/svg" xmlns:xlink="http://www.w3.org/1999/xlink" width="544" height="429" viewBox="0 0 544 429" version="1.1">
    <g id="Page-1" stroke="none" stroke-width="1" fill="none" fill-rule="evenodd">
        <g id="carte-verso-final" transform="translate(0.281250, -0.328952)" fill="#FFFFFF">
            <path d="M531.1001,220.846035 C537.276713,223.257053 543.168152,225.473633 543.168152,233.665909 C543.168152,243.011843 535.186516,247.351027 525.493836,247.351027 C515.992352,247.351027 507.443609,241.663747 507.443609,231.063695 L517.512201,231.063695 C517.512201,236.942171 521.122246,239.061533 526.064184,239.061533 C530.1506,239.061533 533.284275,237.713437 533.284275,233.857105 C533.284275,229.61514 528.818707,229.326725 519.50842,225.66483 C513.331807,223.257053 508.963458,220.943253 508.963458,213.136611 C508.963458,204.655921 516.5627,200.125541 525.587814,200.125541 C534.99532,200.125541 542.500585,206.580846 542.500585,215.353192 L532.428753,215.353192 C532.428753,211.111226 530.338556,208.411794 525.30588,208.411794 C521.789813,208.411794 518.938071,210.148764 518.938071,213.327807 C518.938071,217.184139 523.024487,217.666991 531.1001,220.846035" id="Fill-1"/>
            <path d="M477.1027,208.027457 C483.373291,208.027457 487.838859,212.269422 487.838859,219.110361 L465.796194,219.110361 C465.796194,211.786571 470.738132,208.027457 477.1027,208.027457 M477.673049,238.579978 C469.027087,238.579978 466.272564,233.37555 465.796194,226.917003 L497.434321,226.917003 C497.910691,224.026375 497.910691,221.907012 497.910691,220.364479 C497.910691,208.895942 488.885577,200.123596 477.387874,200.123596 C463.420823,200.123596 455.536406,210.244038 455.536406,223.73796 C455.536406,236.940226 462.756497,247.349083 477.673049,247.349083 C488.979555,247.349083 496.293624,240.410925 497.531539,232.701502 L487.077314,232.701502 C485.84264,235.880545 483.564487,238.579978 477.673049,238.579978" id="Fill-3"/>
            <path d="M432.60646,201.28082 L442.963467,201.28082 L442.963467,246.192507 L432.60646,246.192507 L432.60646,239.928398 C429.851937,244.747193 424.718803,247.349407 418.163038,247.349407 C411.798469,247.349407 407.332902,245.035607 404.863553,241.279734 C402.676137,237.906254 402.011811,234.14714 402.011811,227.977009 L402.011811,201.28082 L412.368818,201.28082 L412.368818,224.50955 C412.368818,232.218974 414.552992,238.09745 421.96428,238.09745 C429.18437,238.09745 432.60646,232.218974 432.60646,224.50955 L432.60646,201.28082 Z" id="Fill-5"/>
            <path d="M335.106392,169.643665 C334.289757,169.296919 333.333776,169.679312 332.983789,170.505669 L317.483927,207.16675 L317.483927,201.281792 L307.130161,201.281792 L307.130161,231.665801 L288.37348,276.033065 C288.026734,276.856181 288.412367,277.805681 289.238724,278.155668 C289.442883,278.243164 289.656763,278.282052 289.867403,278.282052 C290.496083,278.282052 291.098837,277.912622 291.361327,277.293664 L307.130161,239.994182 L307.130161,246.193479 L317.483927,246.193479 L317.483927,226.821081 C317.483927,215.640959 322.331887,210.533749 331.165804,210.533749 C332.782871,210.533749 333.638394,210.630967 335.25222,211.016601 L335.25222,201.37577 C334.111524,200.896159 332.782871,200.701722 331.165804,200.701722 C328.148791,200.701722 325.167425,201.670666 322.698077,203.16459 L335.971637,171.766268 C336.318383,170.943152 335.932749,169.990411 335.106392,169.643665" id="Fill-7"/>
            <path d="M273.274157,208.027457 C279.544747,208.027457 284.010315,212.269422 284.010315,219.110361 L261.96765,219.110361 C261.96765,211.786571 266.909588,208.027457 273.274157,208.027457 M273.844505,238.579978 C265.198543,238.579978 262.44402,233.37555 261.96765,226.917003 L293.605777,226.917003 C294.082147,224.026375 294.082147,221.907012 294.082147,220.364479 C294.082147,208.895942 285.057034,200.123596 273.559331,200.123596 C259.592279,200.123596 251.707862,210.244038 251.707862,223.73796 C251.707862,236.940226 258.927953,247.349083 273.844505,247.349083 C285.151012,247.349083 292.46508,240.410925 293.702995,232.701502 L283.248771,232.701502 C282.014096,235.880545 279.735944,238.579978 273.844505,238.579978" id="Fill-9"/>
            <path d="M221.366629,236.266827 L209.013404,236.266827 L209.013404,216.991647 L221.460607,216.991647 C229.821395,216.991647 231.817614,223.352975 231.817614,226.726455 C231.817614,230.676765 230.297765,236.266827 221.366629,236.266827 Z M209.013404,188.655707 L220.796281,188.655707 C229.727417,188.655707 231.247265,194.534183 231.247265,197.907664 C231.247265,201.183926 229.727417,207.062402 220.796281,207.062402 L209.013404,207.062402 L209.013404,188.655707 Z M291.833809,305.586828 L242.54081,289.646241 L236.597521,241.351352 C241.442241,237.213086 242.744968,231.286001 242.744968,227.112088 C242.744968,216.894428 234.763333,211.881197 230.488961,211.881197 C235.998007,210.630319 242.17462,205.425891 242.17462,196.945201 C242.17462,189.909825 239.037704,178.729702 220.796281,178.729702 L198.08929,178.729702 L198.08929,246.192831 L220.890259,246.192831 C226.337733,246.192831 230.453315,245.107225 233.583749,243.412383 L239.575647,292.096147 L290.832458,308.671894 C291.00097,308.723744 291.169482,308.749668 291.331513,308.749668 C292.015283,308.749668 292.653684,308.312185 292.874046,307.628416 C293.149498,306.776134 292.68285,305.86228 291.833809,305.586828 Z" id="Fill-11"/>
            <path d="M133.609147,217.665371 L123.252141,217.665371 C122.681793,212.749357 119.833292,209.473095 112.801157,209.473095 C104.819521,209.473095 100.924302,216.122838 100.924302,223.738284 C100.924302,231.447708 104.534347,238.000232 113.465483,238.000232 C119.548118,238.000232 122.017467,235.30404 123.349359,230.77366 L133.703125,230.77366 C132.280495,240.122835 125.533534,247.349407 112.707179,247.349407 C98.2637566,247.349407 90.5672953,235.978088 90.5672953,223.738284 C90.5672953,211.592458 98.2637566,200.12392 112.60996,200.12392 C127.053383,200.12392 132.944821,208.990244 133.609147,217.665371" id="Fill-13"/>
            <path d="M65.1699453,184.896593 C65.1699453,180.56065 68.5887944,177.089951 72.7724287,177.089951 C77.0468003,177.089951 80.4656494,180.56065 80.4656494,184.896593 C80.4656494,189.138559 77.0468003,192.606017 72.7724287,192.606017 C68.5887944,192.606017 65.1699453,189.138559 65.1699453,184.896593" id="Fill-15"/>
            <polygon id="Fill-17" points="67.638646 246.192507 77.9956524 246.192507 77.9956524 201.28082 67.638646 201.28082"/>
            <path d="M37.6807781,182.390625 C37.6807781,178.245879 40.9116715,174.872398 44.9980874,174.872398 C49.9367851,174.872398 53.1676785,178.72873 53.1676785,184.41601 C53.1676785,195.690111 47.6553919,199.737639 38.0599301,199.834858 L38.0599301,195.113281 C41.1968457,195.113281 43.2870425,194.342015 44.6156948,193.185115 C46.0415655,192.028215 46.7058917,190.582901 46.897088,189.137586 C46.7058917,189.328783 45.7563914,189.620438 44.9980874,189.620438 C40.5325196,189.620438 37.6807781,186.438154 37.6807781,182.390625" id="Fill-19"/>
            <polygon id="Fill-20" points="11.0464852 236.266827 31.5693018 236.266827 31.5693018 246.192831 0.119130524 246.192831 0.119130524 178.729702 11.0464852 178.729702"/>
            <path d="M376.993289,223.737312 C376.993289,231.446735 371.863395,238.0025 363.88176,238.0025 C356.091321,238.0025 350.961427,231.446735 350.961427,223.737312 C350.961427,216.027888 356.091321,209.472123 363.88176,209.472123 C371.863395,209.472123 376.993289,216.027888 376.993289,223.737312 Z M391.158019,196.140232 L387.366499,205.077849 L387.350296,201.279848 L376.993289,201.279848 L376.993289,207.352761 C374.238766,202.822381 368.441305,200.122948 363.311412,200.122948 C349.82073,200.122948 340.60442,211.014656 340.60442,223.737312 C340.60442,236.459967 349.82073,247.351675 363.311412,247.351675 C368.441305,247.351675 374.238766,244.652243 376.993289,240.121863 L376.993289,248.411356 C376.993289,256.892047 371.957373,260.456723 363.690564,260.456723 C356.185299,260.456723 352.384057,256.12078 351.813709,251.301985 L341.362724,251.301985 C341.647898,256.023562 343.55014,260.65116 347.254163,264.121859 C350.284138,266.957398 354.477494,268.995745 359.947653,269.65359 L330.114549,339.919851 L301.788331,349.129679 L262.839376,414.60307 L207.188289,287.382996 L173.929855,274.579325 L170.099448,246.732718 C178.346813,244.940657 183.632257,239.117272 184.662773,232.700854 L174.208548,232.700854 C172.973873,235.879897 170.695721,238.57933 164.804282,238.57933 C156.158321,238.57933 153.403798,233.374902 152.927427,226.916355 L184.565554,226.916355 C185.041925,224.025726 185.041925,221.906364 185.041925,220.363831 C185.041925,208.895294 176.016811,200.122948 164.519108,200.122948 C164.233934,200.122948 163.971444,200.155354 163.692751,200.161836 L157.457807,154.854793 L163.533961,140.703027 L366.435365,140.703027 L391.158019,196.140232 Z M164.233934,208.026809 C170.504525,208.026809 174.970092,212.268774 174.970092,219.109713 L152.927427,219.109713 C152.927427,211.785923 157.869366,208.026809 164.233934,208.026809 Z M194.481837,57.2215364 L221.190988,74.8051149 L271.851527,6.07814615 L302.514228,52.036552 L328.157217,46.047895 L365.061344,137.407321 L167.90231,137.407321 L194.481837,57.2215364 Z M481.289251,137.462411 L368.580652,137.462411 L330.639528,43.54614 L330.117789,42.2596157 L303.962783,48.3681755 L271.984392,0.439475575 L220.406759,70.4108406 L192.735145,52.1921015 L164.470499,137.462411 L59.221796,137.462411 L59.221796,140.703027 L156.479142,140.703027 L150.791862,153.950662 L157.286055,201.156704 C147.862346,204.057055 142.664399,212.784032 142.664399,223.737312 C142.664399,236.586351 149.524781,246.758643 163.63442,247.299825 L168.031935,279.252292 L202.333848,292.457799 L261.957928,428.764559 L306.111311,354.541507 L334.926862,345.176129 L366.963585,269.715161 C372.861505,269.293881 377.702984,267.741627 381.173683,264.795907 C385.260099,261.325208 387.538251,255.929584 387.538251,248.411356 L387.431311,221.507768 L398.229041,196.07866 L373.529071,140.703027 L481.289251,140.703027 L481.289251,137.462411 Z" id="Fill-21"/>
        </g>
    </g>
</svg>