<svg id="Layer_1" data-name="Layer 1" xmlns="http://www.w3.org/2000/svg" viewBox="0 0 87 42.29" width="870" height="420"><defs><style>.cls-1{fill:#fff;}</style></defs><path class="cls-1" d="M64.13.63,77.58,28.27h3.25L67.38.63Z" transform="translate(-40 -0.15)"/><path class="cls-1" d="M93.48.63,82.11,25.14l.52,1.16L94.52.63Z" transform="translate(-40 -0.15)"/><path class="cls-1" d="M40,.63V28.27H67.49v-.93H43.07V.63Z" transform="translate(-40 -0.15)"/><path class="cls-1" d="M46.5.63h-.76v24.8h.76Z" transform="translate(-40 -0.15)"/><path class="cls-1" d="M70.16.63,81.06,23l.41-.87L71,.63Z" transform="translate(-40 -0.15)"/><path class="cls-1" d="M122.6.15l-5.87,8.38.53.77L123.61.15Z" transform="translate(-40 -0.15)"/><path class="cls-1" d="M113.08,18.05l7,10.22h3.07l-8.52-12.48Z" transform="translate(-40 -0.15)"/><path class="cls-1" d="M101,.63l10,14.34-9.28,13.3h1.28L113,13.64l-8.93-13Z" transform="translate(-40 -0.15)"/><path class="cls-1" d="M107.28.63l18.79,27.64H127L108.15.63Z" transform="translate(-40 -0.15)"/><path class="cls-1" d="M123.93,42.44c1.5,0,2.61-.75,2.61-2s-1.11-1.69-2.32-2.09c-1-.41-2-.82-2-1.69S123,35.3,124,35.3a1.8,1.8,0,0,1,2,1.63h.24a2.08,2.08,0,0,0-2.32-1.86c-1.45,0-2.5.81-2.5,1.91s1.22,1.75,2.26,2.15,2,.82,2,1.69-.81,1.33-2,1.33-2.26-.75-2.26-1.74h-.23C121.32,41.63,122.48,42.44,123.93,42.44Zm-11.2-7.26H107v.18h2.44v7h.92v-7h2.38Zm-16.06,7.2h.92v-7.2h-.92Zm-14.27-7h1.74a1.72,1.72,0,0,1,1.8,1.85,1.75,1.75,0,0,1-1.8,1.86H82.4Zm4.41,6.15L85.88,40a1.73,1.73,0,0,0-1.1-.75,2.21,2.21,0,0,0,2.14-2c0-1.17-1.1-2-2.61-2H81.47v7.15h.93V39.25h1.74a1.56,1.56,0,0,1,.64.58l1.1,1.92a1.67,1.67,0,0,0,.52.58h1A1.7,1.7,0,0,1,86.81,41.57Zm-16.3.81h.93v-7.2h-.93Zm-12.3-2.9H56.3V35.42h1.91a2,2,0,0,1,0,4.06Zm.18-4.3h-3v7.15h.93V39.6h2.09A2.36,2.36,0,0,0,61,37.39,2.4,2.4,0,0,0,58.39,35.18Zm-15.2,7.26c1.51,0,2.61-.75,2.61-2s-1.1-1.69-2.32-2.09c-1-.41-2-.82-2-1.69s.81-1.39,1.86-1.39a1.8,1.8,0,0,1,2,1.63h.23a2.08,2.08,0,0,0-2.32-1.86c-1.45,0-2.49.81-2.49,1.91S42,38.73,43,39.13s2,.82,2,1.69-.81,1.33-2,1.33-2.27-.75-2.27-1.74h-.17C40.58,41.63,41.68,42.44,43.19,42.44Z" transform="translate(-40 -0.15)"/></svg>